PathFileType	4	(X/Y/Z)	Patient4_TMGait_0pt3_02_left_20.trc.trc
DataRate	CameraRate	NumFrames	NumMarkers	Units	OrigDataRate	OrigDataStartFrame	OrigNumFrames
50.000000000000	50.000000000000	4	33	mm	50.000000000000	53	       141
Frame#	Time	Sacral			L.Shoulder			Chest			R.Shoulder			Neck			R.ASIS			L.ASIS			R.Thigh.Superior			R.Thigh.Lateral			R.Thigh.Inferior			R.Patella			L.Thigh.Superior			L.Thigh.Lateral			L.Thigh.Inferior			L.Patella			L.Shank.Superior			L.Shank.Lateral			L.Shank.Inferior			R.Shank.Superior			R.Shank.Lateral			R.Shank.Inferior			R.Heel			R.Midfoot.Superior			R.Midfoot.Lateral			R.Toe			L.Heel			L.Midfoot.Lateral			L.Midfoot.Superior			L.Toe			L.Elbow			L.Wrist			R.Elbow			R.Wrist			
		X1	Y1	Z1	X2	Y2	Z2	X3	Y3	Z3	X4	Y4	Z4	X5	Y5	Z5	X6	Y6	Z6	X7	Y7	Z7	X8	Y8	Z8	X9	Y9	Z9	X10	Y10	Z10	X11	Y11	Z11	X12	Y12	Z12	X13	Y13	Z13	X14	Y14	Z14	X15	Y15	Z15	X16	Y16	Z16	X17	Y17	Z17	X18	Y18	Z18	X19	Y19	Z19	X20	Y20	Z20	X21	Y21	Z21	X22	Y22	Z22	X23	Y23	Z23	X24	Y24	Z24	X25	Y25	Z25	X26	Y26	Z26	X27	Y27	Z27	X28	Y28	Z28	X29	Y29	Z29	X30	Y30	Z30	X31	Y31	Z31	X32	Y32	Z32	X33	Y33	Z33	

53	40.120000000000	739.710886792839	1003.365500432559	436.838004472980	924.016004461337	1421.267507142194	237.733149828823	1034.177093354593	1348.299693878877	392.225977575761	969.457786431423	1429.660384479191	569.402218713867	921.473193838929	1486.229693683723	394.953163792761	970.835544881972	930.598040232552	544.299305062666	947.429621724198	949.243162012871	271.186329703374	1001.612884229967	726.593150675646	525.143371002194	921.546678577659	622.239562143276	596.111880481902	996.239680918885	558.782937000355	519.243649539504	982.468498530497	450.806773651129	544.389857503532	1012.157666056573	750.926174168982	312.377874259685	938.811874501892	622.894243033860	258.705173643952	1031.912928938549	556.787979715071	325.381015652086	1039.368041226686	482.227797787199	334.377690099499	1002.447440368484	408.103610768802	330.433972516176	902.871768916065	301.178415520423	283.530706423425	940.945649846004	187.788336091455	355.975797799746	899.678625781000	390.002521680112	555.025292854509	776.835244556625	362.186292834113	617.816110214245	755.124525848020	251.973837538940	572.929184972831	549.421619666085	202.649497895747	547.554319133544	712.708162987383	133.642113490004	591.531584336471	604.027240597190	142.379298507261	623.260362486939	769.541205745466	31.298017144765	620.277633025681	799.625082539263	39.823969420353	400.308020313269	871.910034874808	36.586216532616	318.542059936238	957.217103587895	96.149317813001	344.196336006253	1083.876066332290	40.224033681164	311.206882046137	887.718680092936	1076.261246203530	107.851179643635	977.468677848346	830.796121818528	125.555908830006	1041.440479535858	1088.399406102228	688.934862100778	1244.525024443539	926.523628242345	701.283845452163	
54	40.140000000000	738.545024458805	1002.223161635046	432.238527742121	926.342496709574	1421.081285220703	235.952106405404	1034.020465863918	1347.434880226407	391.822451200524	966.688485801107	1427.748372877335	568.576428118908	921.739954719329	1485.436786412240	393.545317156785	969.433012827618	930.299934878689	541.438438831915	947.758832938673	948.388506670129	268.233526984751	1007.157390157069	729.081969497206	520.912890973141	931.641878692775	622.353289498094	592.191696626122	1008.172284525580	561.126738831208	514.531888684461	996.939292960738	451.625534245533	540.163781402646	1012.041847698327	749.416117375866	309.362640490372	938.149462056856	621.551695071871	256.517323187377	1030.775622626327	555.248685684110	323.734784287825	1037.776629352647	480.639175673570	333.207017930280	1000.149558656848	406.545601835637	329.460922203573	899.707414299093	300.391521833035	282.553233221184	936.109384712728	186.970053556192	355.656825808514	912.672423934969	391.065074681083	550.962485816362	788.312544302215	367.003772806595	613.051252775977	764.172567082374	256.851829361987	569.214468133748	557.680351996249	214.544524909892	542.099928531600	718.256613625991	139.128769411858	588.849964559237	609.117099245731	152.739540173189	619.158068394496	770.320061232595	31.558956134638	619.813908912763	793.586446754670	39.809822734856	400.177861220809	865.889978462383	36.522748065564	318.417570158877	951.209424778754	96.050108778759	344.156666266215	1077.869385560494	40.144687715154	311.152346163665	901.406347391316	1076.096288376650	102.899192142721	999.832263390015	834.077305835991	120.823003623738	1020.767704738929	1081.847117519153	687.256238899797	1209.087071760797	903.519233268489	704.032955537401	
55	40.160000000000	737.311424415186	1001.060861439026	427.879546406493	928.597194940012	1420.868766174214	234.515161473489	1033.703819707346	1346.592316608017	391.782068564614	963.572738843447	1425.805358408903	568.038333299339	921.851944950521	1484.628949810551	392.459131847416	967.902359615107	930.007695581708	538.979099897615	948.076557580890	947.523134660087	265.691231622700	1012.379745144238	731.936912824957	516.858437580124	941.493169038443	622.917633122107	588.399123254756	1019.699328248853	564.055816944298	509.859220329209	1011.231367010213	453.186401428777	535.769496341695	1011.924155338759	747.883273666891	306.769499735475	937.536391620259	620.196810708179	254.627707141378	1029.650260458137	553.695535923058	322.448915709412	1036.206936476980	479.046345561435	332.392075586117	997.871858256850	404.980457540724	328.762768258077	896.600748500943	299.619324399318	281.727895286719	931.294844926309	186.147761472597	355.426793217631	925.853276879312	392.518390400676	546.787879091009	800.192055737300	371.319904298248	608.156653701281	774.304911984839	261.151221569977	565.236232231909	567.234974500271	223.873506599699	536.436359459471	725.813559843782	144.113584515646	585.811547555734	616.248599314692	161.290553228849	614.822094789962	774.358489972263	32.228378191229	619.015582330141	787.541462325237	39.801501779135	400.042054785902	859.872416538839	36.460807552445	318.290311670990	945.205027921059	95.945846484816	344.129758519036	1071.862213885919	40.065399198798	311.101496347717	914.898792542020	1076.228001214562	98.630300402483	1022.547735489666	838.253584974903	116.858476005790	999.471971855162	1076.175468329481	685.304359880545	1171.498271914737	882.638806248698	705.816213219428	
56	40.180000000000	736.083644341850	999.989043466055	423.770572660597	930.819063191255	1420.717243138402	233.401082612394	1033.257742745900	1345.890116897935	392.095482001623	960.139279561354	1423.993310513767	567.746195543558	921.829533274788	1483.913325168583	391.652742233144	966.262148210569	929.823481515611	536.954518546283	948.451599100215	946.745833302808	263.581759073164	1017.128991156036	735.165073906159	513.061130667243	950.864264174572	623.997437847717	584.818306822869	1030.530802432615	567.566399965017	505.329947478401	1025.037147909909	455.540575713914	531.350741068446	1011.762188060348	746.359586049116	304.589432595838	936.846771895826	618.904724859536	253.023516112709	1028.376531935765	552.160280236811	321.487462982939	1034.472186405372	477.502486918732	331.895086693004	995.456883699808	403.474237131933	328.302550074733	893.429328907866	298.887749946777	281.037046576862	926.447286658781	185.358346716133	355.268522584686	939.002470739682	394.372114017043	542.649669982905	812.316713581062	374.895096331225	603.323527705676	785.558819531875	264.580791322870	561.161881875001	578.129898588594	229.894244402570	530.863670003820	735.665197342277	148.216787732641	582.564782445654	625.670105941817	167.344524226202	610.473705051912	782.268066488061	33.231492216334	617.864936390081	781.487188032366	39.797204264486	399.902850640743	853.855299524443	36.400250603617	318.160726147014	939.200834373097	95.840329225445	344.107323167128	1065.853198598114	39.988000368048	311.054175261552	928.029956050616	1076.709080167845	95.070677794472	1045.355250210894	843.419151204384	113.687555932269	977.847740378612	1071.617722705814	683.121351074019	1132.327351590007	864.317532196965	706.614682967658	
